<svg id="Warstwa_1" data-name="Warstwa 1" xmlns="http://www.w3.org/2000/svg" viewBox="0 0 592.16 194.23"><defs><style>.cls-1{fill:#f5aa3b;}.cls-2{fill:#c6c6c6;}</style></defs><path class="cls-1" d="M129.38,61.67a30.18,30.18,0,0,1,.19,9.53,20,20,0,0,1-.13,3.45,34.9,34.9,0,0,0-.77,6.29,93.86,93.86,0,0,1-.44,9.41q0,5.31.55,16.39a125,125,0,0,0,2.25,19q1.66,7.89,2.85,8.06c.79.12,1.51-.52,2.17-1.91-.14-.51.1-1.88.72-4.1q1-8.34,2.34-14.82a64.25,64.25,0,0,0,1.44-8.37q.09-1.1.62-6A49.12,49.12,0,0,0,142.34,88l-.07-1.25q.18-8.45,0-11.88t-.46-5.76l-.15-5.78a5.7,5.7,0,0,1,1.23-3.5,7.12,7.12,0,0,0,1.14-.53c.66-.35,1.32-.67,2-1a6.38,6.38,0,0,1,3.36,0,10,10,0,0,1,3.17.93,4.42,4.42,0,0,1,1.32,1.26c.34.5.62.93.85,1.28a8,8,0,0,1,.72,1.76c.4,1.76.89,5.17,1.47,10.25s.86,8.39.84,10,0,3.49.15,5.78l0,2.19c.07,1.35,0,5.08-.19,11.19a84.24,84.24,0,0,1-.81,11.38c-.11,1.88-.16,3-.13,3.44l-.33,2.68a3,3,0,0,1-.11.94c-.09.32-.34,1.56-.74,3.72s-.66,3.34-.75,3.55l-.6,3.48q-2.74,7.34-3.47,8.31c0,.52-.94,2-2.9,4.37l-2.32,3.41-1.2,1q-5.76,6.41-13.52,1.65l-4-2.6a15.51,15.51,0,0,0-2.65-2.68,7.65,7.65,0,0,0-1.49-1.72,17.36,17.36,0,0,1-2.33-2.69,5,5,0,0,1-1-2,15.85,15.85,0,0,0-1.58-3.43,12.86,12.86,0,0,1-1.9-3.34,15,15,0,0,1-1.43-3.37,11.53,11.53,0,0,1-1.15-4l-1.49,7.27a10.71,10.71,0,0,1-.9,3.8l-.77,3.17q-5.45,15.3-6.31,16.75a18.43,18.43,0,0,1-4.44,4.69q-1.83,1.11-5.59.84a47.53,47.53,0,0,1-9.78-1.67l-2.63-2.52a6.42,6.42,0,0,1-2.07-3.65q-1.75-3.5-2.37-4.88a29.27,29.27,0,0,1-1.45-5.24l-.2-3.89c-.23-.3-.5-2.43-.81-6.37-.3-1.65-.45-2.64-.47-3l.1-1.1q-1-.88-1.7-8.51l-.21-1.08a14.09,14.09,0,0,0-.24-1.55q-.21-1.08-.9-5.27l-.9-8.09a12.71,12.71,0,0,0-.21-4l-.15-3q-.48-8.9.58-12.7L70.72,82a6.77,6.77,0,0,1,.22-1.73c.24-1.37.53-2.77.87-4.19a29.18,29.18,0,0,0,.69-4.73,9,9,0,0,1,.9-3.8,20.19,20.19,0,0,1,2.34-3,9,9,0,0,1,2.85-2.34,30.63,30.63,0,0,1,3.56-.66q1.68-.7,5.78,0a9.37,9.37,0,0,1,3.81,1.05,4,4,0,0,1,1.88,3A29.08,29.08,0,0,1,93.54,73c-.33,3.51-.65,5.43-.94,5.75q.81.75.36,3.9c.14,2.59.14,5.28,0,8s-.15,4.51-.11,5.24L93,97.83a34.4,34.4,0,0,0,0,3.6,45.54,45.54,0,0,0-.06,7.82,26.92,26.92,0,0,0,.09,4.68l-.15,3.14.12,2.18a15,15,0,0,0,.29,2.64,77.11,77.11,0,0,0,.42,9.37c.36,3.83.74,5.74,1.16,5.72l4.69-9c.36-1,1-3.44,2-7.46l5-10.89q1.46-5.09,1.74-5.73l1-2.7c.51-.24.86-.93,1.06-2.09s.49-2.58.87-4.27a32.6,32.6,0,0,0,.48-7.3,17.83,17.83,0,0,1,1-7.32,64,64,0,0,1,1.11-11.47,34.52,34.52,0,0,0,.12-3.76,16,16,0,0,1,3-6q1.64-1.72,6.44-1C126.53,58.51,128.55,59.74,129.38,61.67Z"/><path class="cls-1" d="M173.67,121.88l.21-8a37.59,37.59,0,0,1,5.58-18.74q5-6.68,14.62-7.34l.94,0q9-.48,13.3,3.21a23.37,23.37,0,0,1,6.87,7.14,48.49,48.49,0,0,1,3,5.78,21.43,21.43,0,0,1,1.06,5.42q.68,6.69-2.24,7.78,3,14.7-1.42,23.69a44.74,44.74,0,0,1-4.11,8c-1.36,2-3.9,3.12-7.63,3.53a66.06,66.06,0,0,1-9.78-.11,23,23,0,0,1-9.33-3.5q-5.17-3.09-7.59-10.62A69.77,69.77,0,0,1,173.67,121.88Zm27.77-16.15q-1.42-6.18-6.39-5.45c-1.87.2-3.41,1.53-4.64,4q-2.52,5.61-1.67,14.24a80.46,80.46,0,0,0,1.9,12.41,16.69,16.69,0,0,0,3.39,6.47,3.76,3.76,0,0,0,3.85,1.83q4.37-.22,6-7.67l1.05-3.8a1.19,1.19,0,0,0,.23-1.58,27,27,0,0,0,1.23-9.29,4.66,4.66,0,0,1-2-1.93,13.65,13.65,0,0,1-1.12-3.54,3.72,3.72,0,0,1-1.4-2.89A24.63,24.63,0,0,0,201.44,105.73Z"/><path class="cls-1" d="M243,82.27a4.21,4.21,0,0,0,2-.49,18.1,18.1,0,0,1,2.6-1.16q1.92-.72,9.28-.48a26,26,0,0,1,9.26,3.57,21.57,21.57,0,0,1,8.62,6.43q5,11.31,5.89,19.86,1,13.08-1.35,21.81-3.37,10-4.54,11.81a14.59,14.59,0,0,1-2.21,5.43,4.06,4.06,0,0,0-1.24.22,4,4,0,0,1-.81,1.06,3.25,3.25,0,0,1-2.37,1,6.42,6.42,0,0,0-2.37,1,2.49,2.49,0,0,1-1.62.48l-3.88.51-4.21.22a17.18,17.18,0,0,1-6.76-.73l-4.84-2.88-1.66-1.79a.48.48,0,0,1-.57-.36,3.54,3.54,0,0,0-.27-.69,3.12,3.12,0,0,1-1.53-2.42c-1.24-1.7-1.88-2.92-1.92-3.65a2.09,2.09,0,0,0-.55-1.53,25.62,25.62,0,0,0-1.76-6.79l-.43-2.17-.09-1.71a21.11,21.11,0,0,0-1.53-5.39c.19-.22.16-.8-.09-1.72a46.63,46.63,0,0,1-.1-4.84l-.58-2a3.15,3.15,0,0,0,.3-1.74,6.64,6.64,0,0,1,.27-2.36l-.06-1.09.34-5.49a3.79,3.79,0,0,1,.22-1.73l-.06-1.09c.21,0,.34-.54.39-1.59l.71-1.29.09-1.25a2.77,2.77,0,0,0-.2-.93L236,93.9A6.42,6.42,0,0,1,237,92a4.87,4.87,0,0,1,1-2.4,3.46,3.46,0,0,1,.69-1.91A6.42,6.42,0,0,1,240.16,84,4.37,4.37,0,0,1,243,82.27Zm23.61,28.31-1-4a3.24,3.24,0,0,0-.29-1.08,15.29,15.29,0,0,1-.67-2.31,18.52,18.52,0,0,1-1.79-1.31l-.85-1.21-.54-1.38a1.66,1.66,0,0,1-.93-1.28,2.2,2.2,0,0,0-.69-1.37,5.09,5.09,0,0,1-.92-1,1.67,1.67,0,0,0-.66-.67,4.17,4.17,0,0,0-3.75,0c-1.53.6-2.43,1.38-2.69,2.33-1.56,4-2.31,6.64-2.25,7.78q-1.78,7.59-.69,10.67a61.11,61.11,0,0,0,2,13.65l.09,1.72a22,22,0,0,1,2.91,4.85c1.11,1.3,1.87,2.22,2.26,2.77a7.58,7.58,0,0,0,.76,1,8.87,8.87,0,0,1,1.95,1.46c.81-.46,1.37-.8,1.67-1l-.06-1.1a8.25,8.25,0,0,1,1.35-1c-.1,0,.24-.37,1-1.15l.74-.82c1.38-3.4,2.07-5.19,2.06-5.34a7.43,7.43,0,0,0-.21-1,1.53,1.53,0,0,1,.66-2.22l1.59-5.56,0-.93a1.15,1.15,0,0,0-.39-1.39l0-1.09a2.89,2.89,0,0,0,.24-1.27,12.16,12.16,0,0,0,.39-3,3.09,3.09,0,0,1,0-1.17,2.06,2.06,0,0,1,.41-1C268.51,111.63,268,111.14,266.58,110.58Z"/><path class="cls-1" d="M295.82,92.63l-1.57-.08-1.87.1c-2.92.15-4.65-.12-5.21-.82a6.07,6.07,0,0,1-.62-5.91,4,4,0,0,1,3-2.89,34,34,0,0,0,3.7-1.06,33.46,33.46,0,0,0,3.8-.67c2-.41,3.16-.79,3.46-1.12l-.07-1.24a19.86,19.86,0,0,1,1.16-4.75,7.13,7.13,0,0,1,.5-2.38c.25-1,.54-2.53.86-4.42l1.79-7.6a6,6,0,0,1,1-2.4c-.23-.3-.18-.87.14-1.72a5.36,5.36,0,0,0,.44-2.06l.8-2.54,1.3-2.11a7.36,7.36,0,0,1,.77-3.16A5.5,5.5,0,0,0,310.3,44c5.12-3.82,8-5.79,8.76-5.94l4.36-.23a48.82,48.82,0,0,0,5-.42,23.05,23.05,0,0,1,8.52,1.43l1.59.39q6.66,5,6.32,10.3a4.19,4.19,0,0,1-1.49,2.73,6.76,6.76,0,0,1-3.57,2.07,19.86,19.86,0,0,1-8.2-1.29,16.53,16.53,0,0,0-6.09-1.4c-1.41.07-2.53,1-3.38,2.68Q320.74,58,319.43,69q-1.51,9.78-1.19,10.07l1.41-.07a16.92,16.92,0,0,0,3.29.14l5.5.49a22,22,0,0,1,7.33,1.26c3,.93,4.36,2.48,4,4.63s-1.72,3.41-4.1,3.74q-10.17.06-16.29,2.42-1.23.52-.85,7.7l.12,14.07c.08,1.56,0,2.4-.18,2.51-.5.45-.41,1.17.27,2.18a9.84,9.84,0,0,0-.11,2.43,14.73,14.73,0,0,0,.23,2.88q-.28.65.14,5.7t.66,6.45c-.21,0-.18.74.11,2.18l.12,2.34q.35,6.56.26,7.81-.33,5.81-6.81,7.24a8.78,8.78,0,0,1-5.5-.42,7.1,7.1,0,0,1-3.1-2.41,40.58,40.58,0,0,1-2.84-6.58l-.09-1.71-.46-2.64a14.06,14.06,0,0,1,.18-2.66,12.13,12.13,0,0,1-.42-2l-.21-4.06a38.37,38.37,0,0,0-.46-5.76l-.19-3.59c0-.72-.05-2.76,0-6.09-.18-1.45-.31-2.91-.39-4.36a104.31,104.31,0,0,0-.5-12.49,6.85,6.85,0,0,0,.2-2.2L299.43,96a5.23,5.23,0,0,0,.22-1.73,6.63,6.63,0,0,0-.41-1.86A9.56,9.56,0,0,0,295.82,92.63Z"/><path class="cls-2" d="M346.63,122.32h.16a7.76,7.76,0,0,1,6,1.4l1.65,1.64c.13.41.84,1,2.13,1.76a17.22,17.22,0,0,1-.26,4.08q1.14.72,2.1,4.11a61.35,61.35,0,0,1-.52,11,1.39,1.39,0,0,1-.38,1.59q-1.63,1.8-6.55.5c0,.1-.07.13-.23.09s-.58-.13-1.26-.25-1.21-.19-1.58-.23-1.65-.25-3.86-.65c-1.91-.63-2.87-1.1-2.89-1.41-1.2-1.09-1.82-2-1.86-2.72a6.17,6.17,0,0,1-.54-4.35c.32-1.68.56-3.05.72-4.1l1.26-2.73c0-.73.45-2.31,1.47-4.77a5.16,5.16,0,0,1,.65-2.53A33.84,33.84,0,0,1,346.63,122.32Z"/><path class="cls-2" d="M384.39,76.24q5.07-4.65,16.31-2.11a14.8,14.8,0,0,1,5,3.49,15.26,15.26,0,0,1,2,5.36,30.14,30.14,0,0,1,.65,7.79,15.93,15.93,0,0,1-1.82,7c-1.1,2-3.13,3.37-6.11,4.15-2.19.12-3.58-.49-4.17-1.81a6.69,6.69,0,0,1-.89-5.11A18,18,0,0,0,394,87.3a2.46,2.46,0,0,0-1.57-.23l-1.69,3.53c-.19.43-.88,3.56-2.09,9.41a84.46,84.46,0,0,0-1.84,11c0,1.52-.11,2.9-.25,4.16q.57,10.76,2.35,15t3.39,5.06c.33.29,1.25.4,2.76.32a11.66,11.66,0,0,0,4.85-1.51,20.26,20.26,0,0,0,4.12-4.75c0-.41.83-1.08,2.56-2l1.18-1.31q5.73-.93,6.34,4.67a4.62,4.62,0,0,1-.75,3.48,5.82,5.82,0,0,1-1,2.08c0,.42-1.26,2.88-3.83,7.4a3.05,3.05,0,0,0-2.15.73,9,9,0,0,1-7.08,2.1,3.12,3.12,0,0,0-1-.11c-.31,0-1.94-.16-4.87-.52l-2.19.11a15.25,15.25,0,0,1-5.56-1.74,16,16,0,0,1-4.47-1.8l-2.3-2.06a8.81,8.81,0,0,1-2-1.38,6.14,6.14,0,0,1-1.82-1.94,13.79,13.79,0,0,0-1.21-2.13,5.56,5.56,0,0,1-1-2.68l-.94-3.08a3.71,3.71,0,0,0-.59-2.31,8.67,8.67,0,0,0-.56-1.69c-.06-1.14-.25-2.7-.56-4.66q-.72-4.82.46-6.13a9.91,9.91,0,0,0-.46-2.79l-.29-5.61a22.53,22.53,0,0,1,1.05-6.78,15.8,15.8,0,0,1,1.58-5.55l.67-2.07a9.9,9.9,0,0,1,2.38-5.29l2.19-2.93,1.71-3.21A10.31,10.31,0,0,1,384.39,76.24Z"/><path class="cls-2" d="M427.18,96a5.09,5.09,0,0,1,.81-2.39l-.2-.92a24.06,24.06,0,0,1,.65-2.54c.09-.21.25-.22.46,0a.94.94,0,0,1,.11-.94,21.81,21.81,0,0,1,1.31-3.35,22.57,22.57,0,0,0,1.05-2.4,5.23,5.23,0,0,1,2.78-3.59q-.06-1.25,4.27-1.94,4.9-2,8.08-1.05,1.51-1,4.72.53A25.1,25.1,0,0,1,456.36,80a18.46,18.46,0,0,1,4.08,3.23,4.72,4.72,0,0,1,3,3q4.9,10.21,5.33,18.17l-.22,1.73a5.7,5.7,0,0,1-.25,2.75,2.83,2.83,0,0,0-.3,1.66c.21.09.24.56.07,1.4q0,.78-2,10.27l-2.22,5.28c0,.2-.23.58-.72,1.13l.05.93a3,3,0,0,1-.72,1.29,18.1,18.1,0,0,1-2.87,4.84,41.09,41.09,0,0,1-3.9,6.15l-1.16,1.78-1.88-.06c-.28.54-.55.82-.81.83a12.86,12.86,0,0,1-2.3-.5l1.24-.23a3.74,3.74,0,0,1-2,0,3.39,3.39,0,0,0-1.35-.24q-3-1.41-4.26-.87a31.48,31.48,0,0,1-4.75-1l-4.4-.55-3.5-1.07a15.63,15.63,0,0,1-2.75-1.73,3.74,3.74,0,0,1-.55-1.54l-1.1-3.07a9.46,9.46,0,0,0-.39-1.54l-.22-4a14.63,14.63,0,0,0,.16-3,8.06,8.06,0,0,1-.17-3.28l-.09-1.71a15.16,15.16,0,0,1,.06-1.72,14.23,14.23,0,0,1,0-3.44,44.5,44.5,0,0,0,.06-4.85,33.85,33.85,0,0,1,.32-5.65,13.25,13.25,0,0,0,.42-4A7.74,7.74,0,0,1,427.18,96Zm11.64,16.12a72.53,72.53,0,0,0-.25,10.18,23.73,23.73,0,0,0,1,6.51,3.3,3.3,0,0,0,.72,1.84,3.82,3.82,0,0,0,2.19-.11c1.42-.7,2.11-1.42,2.07-2.15,2.86-3.06,4.48-5.08,4.84-6a7.17,7.17,0,0,1,.85-1.76,3.94,3.94,0,0,0,.67-2.07,5.25,5.25,0,0,0,.88-1.14,6.31,6.31,0,0,1,.49-2.68c-.46-.71-.46-1.26,0-1.65s.62-1.46.53-3.23l.36-5a5.08,5.08,0,0,1,.08-1.41,5.31,5.31,0,0,1,0-2,21,21,0,0,0-.15-4.29c-.21-2-.64-3.25-1.3-3.84l-.36-.92c-.24-.71-1.1-1.19-2.57-1.43l-1.28-.56q.51.92-.81,2.55A55.64,55.64,0,0,0,438.82,112.15Z"/><path class="cls-2" d="M483.17,93.24l1.3-8,0-3.44c.2-.12.43-.81.67-2.07q.48-5.81,6.09-6.11A18.35,18.35,0,0,1,497.69,75a2,2,0,0,1,1.92,1,2.4,2.4,0,0,1,1.46.86,2.09,2.09,0,0,1,.26,2.09,10.22,10.22,0,0,0-.43,2.22q0,.86-.56,5.58-1.57,11.81-1,15.84L507,89.32l2.83-5.77a19,19,0,0,1,4.73-2.13,8,8,0,0,1,2.52.34c3,.26,4.57.59,4.59,1l1.94,1.15a6.85,6.85,0,0,1,2.13,3.48,7.94,7.94,0,0,1-.17,2.75c-.21.89-.49,2-.83,3.4q0,.17-2.34,18L528,97.76l1.45-2.11q-.07-1.4,2.81-6.09l1.41-2.89c0-.31.32-.85,1-1.61.31,0,.6-.5.86-1.46q1.86-3.22,3.54-4.09a13.46,13.46,0,0,1,6.53-.66l2.08.83a3.79,3.79,0,0,0,1,1.36l.47,0a3.94,3.94,0,0,1,1.6,3.83,23.44,23.44,0,0,0-.41,3.93L549.25,101a1.27,1.27,0,0,0-.26,1q-.3.33-.42,8.47t.29,15.93l.26,1.86.92,2.61,1.22,2.44a3.66,3.66,0,0,1-.69,3.24,3.71,3.71,0,0,1-2.81,1.48q-10.62.24-11.89-6.1a3.21,3.21,0,0,1-.56-1.69,9.82,9.82,0,0,0-.77-2.77l-.09-1.72.18-2.35c-.31,0-.55-1.67-.73-5.05a27.68,27.68,0,0,1,0-5.86,23.78,23.78,0,0,0,.33-5.65c-.29.44-.78,1.09-1.46,2a20.66,20.66,0,0,0-2.61,3.89l-2.63,6.39q-3,8-4.62,10.25t-5.51,2.32c-2.6,0-4.24-.24-4.89-.83-.86-.37-1.52-.68-2-.91s-.73-1.4-.73-3.48l-.09-1.56,1.36-12.9a27.59,27.59,0,0,0,.72-4.1l.43-3.78-.16-3-1.44,2.27-1.26,2.88a2.15,2.15,0,0,0-.54,1.59,3.2,3.2,0,0,0-1.16,1.78l-5.43,12.64q-2.37,5.59-2.53,8.42c-.57,1.07-1.26,2.31-2.07,3.7s-1.72,2.05-2.71,2a5.22,5.22,0,0,1-2.15-.59,1.17,1.17,0,0,1-.53-1.23c-1.22.59-2.23.22-3-1.09l-4-4.64a2,2,0,0,1-.72-1.68,5.3,5.3,0,0,0-.16-3.12,3.77,3.77,0,0,1-.42-2,18.84,18.84,0,0,1-.52-3.88,14.51,14.51,0,0,0-.7-4.34,10.16,10.16,0,0,1,.19-2.51l-.09-1.56q-.67-6.84.51-8.16-1-1.35-.18-6.4Z"/></svg>